<svg width="80" height="80" viewBox="0 0 80 80" fill="none" xmlns="http://www.w3.org/2000/svg">
<rect width="80" height="80" rx="40" fill="url(#paint0_linear_113_28)"/>
<path fill-rule="evenodd" clip-rule="evenodd" d="M37.7377 16.1594C38.209 16.4167 38.5096 16.9177 38.5096 17.4783V30.0396C38.51 30.2661 38.4587 30.4896 38.3597 30.6933C38.2606 30.897 38.1165 31.0754 37.9381 31.215L33.8215 34.4C35.7579 35.7461 38.5096 37.6527 38.5096 40.3773C38.5096 43.2617 36.0017 45.2956 33.751 46.5577L37.8948 49.499C38.2821 49.7833 38.5096 50.2302 38.5096 50.7177V63.279C38.5105 63.5439 38.4407 63.8043 38.3074 64.0333C38.1741 64.2623 37.9821 64.4516 37.7513 64.5817C37.5216 64.7059 37.262 64.7638 37.0013 64.749C36.7407 64.7341 36.4893 64.6471 36.2752 64.4977L20.4992 53.4261C19.4474 52.7174 18.5808 51.767 17.9719 50.6544C17.3631 49.5419 17.0298 48.2996 17 47.0317C17 45.2117 17.8017 43.0179 20.4829 40.4342C18.4327 38.6873 17 36.564 17 33.7256C17 30.3267 20.9433 27.4152 23.3646 25.8525L36.2292 16.2894C36.4432 16.1298 36.6976 16.0331 36.9636 16.0101C37.2296 15.9872 37.4967 16.0389 37.735 16.1594M23.0829 29.6821C22.0348 30.5406 19.8708 32.1629 19.8708 33.7256C19.8708 35.9031 21.1898 37.2519 22.739 38.5275L27.0398 35.7027L29.9079 37.4252L25.1467 40.3638L31.0535 44.6213C32.6325 43.9496 35.6442 42.4708 35.6442 40.3773C35.6442 38.1565 32.1152 36.7806 30.5525 35.7027C28.0717 33.9829 24.689 32.3769 23.0965 29.6821H23.0829ZM22.7958 42.2569C20.185 44.6375 19.8708 46.2273 19.8708 47.0317C19.8708 48.0771 20.4017 49.7996 22.0917 50.975H22.1079L23.3267 51.8363C23.7158 50.7742 24.326 49.8068 25.1169 48.9981C25.9078 48.1895 26.8614 47.558 27.9146 47.1454L30.0352 49.239C28.3154 50.0136 26.5388 51.5763 26.2083 52.3238C26.0152 52.7451 25.9269 53.2069 25.951 53.6698L35.6442 60.4813V51.4896C31.3464 48.432 27.0636 45.3535 22.7958 42.2542M25.4338 27.9569C26.4088 30.0504 29.4908 31.429 31.2973 32.6613L35.6442 29.2921V20.3763L25.4338 27.9731V27.9569ZM42.1388 16.1702C42.3658 16.0471 42.6223 15.9889 42.8803 16.0018C43.1382 16.0147 43.3876 16.0982 43.6013 16.2433L58.6596 26.5946C61.1675 28.3008 62.8873 30.5244 62.8873 33.7229C62.8873 36.3473 61.2379 38.5546 59.4477 40.2608C61.024 41.55 62.8873 43.7004 62.8873 47.029C62.8873 51.1863 59.8621 53.1796 57.8688 54.485L57.2242 54.9021C56.1327 55.6604 47.6881 61.5836 43.6283 64.495C43.4143 64.6444 43.1629 64.7314 42.9022 64.7462C42.6416 64.7611 42.3819 64.7032 42.1523 64.579C41.9184 64.451 41.7232 64.2626 41.5869 64.0335C41.4507 63.8043 41.3784 63.5428 41.3777 63.2763V50.715C41.3777 50.2546 41.5944 49.8104 41.9519 49.5396L45.9819 46.425C43.7448 45.0356 41.3777 43.4458 41.3777 40.3746C41.3777 37.6798 44.1456 35.5863 46.0388 34.1671L41.9952 31.2421C41.8044 31.1043 41.6489 30.9232 41.5416 30.7137C41.4342 30.5042 41.3781 30.2723 41.3777 30.0369V17.4783C41.3737 17.2142 41.4426 16.9541 41.5769 16.7267C41.7111 16.4992 41.9056 16.3132 42.1388 16.1892V16.1702ZM48.5331 35.96C47.4308 36.7617 44.2458 38.6548 44.2458 40.3746C44.2458 42.7579 47.745 44.0742 49.2806 45.0221L49.3348 45.0492C52.0323 46.899 55.4015 48.4779 57.1673 51.4029C58.8302 50.2383 60.0192 49.1523 60.0192 47.029C60.0192 44.6917 58.5431 43.2156 57.1808 42.1973L52.8502 45.5529L49.9821 44.0742L54.7135 40.4179L48.5494 35.9736L48.5331 35.96ZM57.0644 38.5113L44.2458 29.2623V20.2327L53.4948 26.5838C55.0006 27.6156 50.5698 31.0281 49.9821 31.5156L52.8502 32.9944C54.4562 31.6592 55.6615 30.7573 56.3927 28.5771L57.0806 29.0511C58.7598 30.1967 60.0192 31.5319 60.0192 33.7256C60.0192 35.6756 58.386 37.3088 57.0671 38.514M54.7731 53.0388C53.484 50.7448 50.6565 49.5125 48.609 48.0933L44.2485 51.4625V60.4542L54.7894 53.0388H54.7731Z" fill="white"/>
<defs>
<linearGradient id="paint0_linear_113_28" x1="-8.5" y1="-2.5" x2="92.5" y2="91" gradientUnits="userSpaceOnUse">
<stop stop-color="#1C8299"/>
<stop offset="1" stop-color="#092B33"/>
</linearGradient>
</defs>
</svg>
